<svg xmlns="http://www.w3.org/2000/svg" viewBox="0 0 800 400" width="800" height="400">
  <style>
    @keyframes drawLine {
      to { stroke-dashoffset: 0; }
    }
    @keyframes fadeInPoint {
      from { opacity: 0; }
      to { opacity: 1; }
    }
    .data-line-0 {
      stroke-dasharray: 1068;
      stroke-dashoffset: 1068;
      animation: drawLine 2s ease-out forwards;
    }
    .data-point {
      opacity: 0;
      animation: fadeInPoint 0.5s ease-out forwards;
    }
    .chart-bg { fill: #fff; }
    .chart-text { fill: #24292e; }
    .chart-muted { fill: #6a737d; }
    .chart-grid { stroke: #eee; }
    .chart-axis { stroke: #6a737d; }
    @media (prefers-color-scheme: dark) {
      .chart-bg { fill: #0d1117; }
      .chart-text { fill: #e6edf3; }
      .chart-muted { fill: #8b949e; }
      .chart-grid { stroke: #21262d; }
      .chart-axis { stroke: #8b949e; }
    }
  </style>
  <rect width="800" height="400" class="chart-bg" />
  <text x="400" y="14" text-anchor="middle" class="chart-text" font-size="16" font-weight="bold" font-family="-apple-system, BlinkMacSystemFont, 'Segoe UI', Helvetica, Arial, sans-serif">Growth Forecast</text>
  <g class="legend">
    <rect x="220" y="31" width="12" height="3" fill="#dfb317" />
    <line x1="220" y1="32.5" x2="232" y2="32.5" stroke="#dfb317" stroke-width="2" />
    <text x="236" y="36" class="chart-text" font-size="10" font-family="-apple-system, BlinkMacSystemFont, 'Segoe UI', Helvetica, Arial, sans-serif">Star History</text>
    <rect x="340" y="31" width="12" height="3" fill="#28a745" rx="1" />
    <line x1="340" y1="32.5" x2="352" y2="32.5" stroke="#28a745" stroke-width="2" stroke-dasharray="4,2" />
    <text x="356" y="36" class="chart-text" font-size="10" font-family="-apple-system, BlinkMacSystemFont, 'Segoe UI', Helvetica, Arial, sans-serif">Linear Regression</text>
    <rect x="460" y="31" width="12" height="3" fill="#d73a49" rx="1" />
    <line x1="460" y1="32.5" x2="472" y2="32.5" stroke="#d73a49" stroke-width="2" stroke-dasharray="4,2" />
    <text x="476" y="36" class="chart-text" font-size="10" font-family="-apple-system, BlinkMacSystemFont, 'Segoe UI', Helvetica, Arial, sans-serif">Weighted Moving Average</text>
  </g>
  <g class="grid">
    <line x1="60" y1="350" x2="770" y2="350" class="chart-grid" stroke-opacity="0.3" />
    <text x="52" y="354" text-anchor="end" class="chart-muted" font-size="11" font-family="-apple-system, BlinkMacSystemFont, 'Segoe UI', Helvetica, Arial, sans-serif">0</text>
    <line x1="60" y1="291.5204678362573" x2="770" y2="291.5204678362573" class="chart-grid" stroke-opacity="0.3" />
    <text x="52" y="295.5204678362573" text-anchor="end" class="chart-muted" font-size="11" font-family="-apple-system, BlinkMacSystemFont, 'Segoe UI', Helvetica, Arial, sans-serif">200</text>
    <line x1="60" y1="233.04093567251462" x2="770" y2="233.04093567251462" class="chart-grid" stroke-opacity="0.3" />
    <text x="52" y="237.04093567251462" text-anchor="end" class="chart-muted" font-size="11" font-family="-apple-system, BlinkMacSystemFont, 'Segoe UI', Helvetica, Arial, sans-serif">400</text>
    <line x1="60" y1="174.56140350877195" x2="770" y2="174.56140350877195" class="chart-grid" stroke-opacity="0.3" />
    <text x="52" y="178.56140350877195" text-anchor="end" class="chart-muted" font-size="11" font-family="-apple-system, BlinkMacSystemFont, 'Segoe UI', Helvetica, Arial, sans-serif">600</text>
    <line x1="60" y1="116.08187134502924" x2="770" y2="116.08187134502924" class="chart-grid" stroke-opacity="0.3" />
    <text x="52" y="120.08187134502924" text-anchor="end" class="chart-muted" font-size="11" font-family="-apple-system, BlinkMacSystemFont, 'Segoe UI', Helvetica, Arial, sans-serif">800</text>
    <line x1="60" y1="57.60233918128654" x2="770" y2="57.60233918128654" class="chart-grid" stroke-opacity="0.3" />
    <text x="52" y="61.60233918128654" text-anchor="end" class="chart-muted" font-size="11" font-family="-apple-system, BlinkMacSystemFont, 'Segoe UI', Helvetica, Arial, sans-serif">1K</text>
  </g>
  <g class="milestones">
    
  </g>
  <g class="x-axis">
    <text x="60" y="370" text-anchor="middle" class="chart-muted" font-size="11" font-family="-apple-system, BlinkMacSystemFont, 'Segoe UI', Helvetica, Arial, sans-serif">Feb 28</text>
    <text x="146.06060606060606" y="370" text-anchor="middle" class="chart-muted" font-size="11" font-family="-apple-system, BlinkMacSystemFont, 'Segoe UI', Helvetica, Arial, sans-serif">Oct 10</text>
    <text x="232.12121212121212" y="370" text-anchor="middle" class="chart-muted" font-size="11" font-family="-apple-system, BlinkMacSystemFont, 'Segoe UI', Helvetica, Arial, sans-serif">May 22</text>
    <text x="318.1818181818182" y="370" text-anchor="middle" class="chart-muted" font-size="11" font-family="-apple-system, BlinkMacSystemFont, 'Segoe UI', Helvetica, Arial, sans-serif">Jan 1</text>
    <text x="404.24242424242425" y="370" text-anchor="middle" class="chart-muted" font-size="11" font-family="-apple-system, BlinkMacSystemFont, 'Segoe UI', Helvetica, Arial, sans-serif">Aug 12</text>
    <text x="490.3030303030303" y="370" text-anchor="middle" class="chart-muted" font-size="11" font-family="-apple-system, BlinkMacSystemFont, 'Segoe UI', Helvetica, Arial, sans-serif">Mar 24</text>
    <text x="576.3636363636364" y="370" text-anchor="middle" class="chart-muted" font-size="11" font-family="-apple-system, BlinkMacSystemFont, 'Segoe UI', Helvetica, Arial, sans-serif">Nov 3</text>
    <text x="662.4242424242425" y="370" text-anchor="middle" class="chart-muted" font-size="11" font-family="-apple-system, BlinkMacSystemFont, 'Segoe UI', Helvetica, Arial, sans-serif">Jun 15</text>
    <text x="748.4848484848485" y="370" text-anchor="middle" class="chart-muted" font-size="11" font-family="-apple-system, BlinkMacSystemFont, 'Segoe UI', Helvetica, Arial, sans-serif">Week 3</text>
    <text x="770" y="370" text-anchor="middle" class="chart-muted" font-size="11" font-family="-apple-system, BlinkMacSystemFont, 'Segoe UI', Helvetica, Arial, sans-serif">Week 4</text>
  </g>
  <line x1="60" y1="50" x2="60" y2="350" class="chart-axis" stroke-width="1" />
  <line x1="60" y1="350" x2="770" y2="350" class="chart-axis" stroke-width="1" />
  <path d="M60,350 L60,349.7076023391813 C67.17171717171718,349.12280701754383 74.34343434343434,348.92787524366474 81.51515151515152,347.953216374269 C88.68686868686869,346.97855750487327 95.85858585858585,344.38270595964906 103.03030303030303,343.859649122807 C110.20202020202021,343.33659228596497 117.37373737373737,343.5363822195906 124.54545454545455,343.27485380116957 C131.7171717171717,343.0133253827485 138.88888888888889,342.2514619883041 146.06060606060606,341.5204678362573 C153.23232323232324,340.7894736842105 160.4040404040404,339.66861598440545 167.57575757575756,338.8888888888889 C174.74747474747474,338.1091617933723 181.91919191919192,337.6218323586745 189.0909090909091,336.8421052631579 C196.26262626262627,336.0623781676413 203.43434343434345,334.8440545808967 210.60606060606062,334.2105263157895 C217.7777777777778,333.5769980506823 224.94949494949495,333.3333333333333 232.12121212121212,333.0409356725146 C239.2929292929293,332.74853801169587 246.46464646464645,332.7485380116959 253.63636363636363,332.4561403508772 C260.8080808080808,332.1637426900585 267.979797979798,332.1637426900585 275.1515151515151,331.2865497076023 C282.3232323232323,330.40935672514615 289.4949494949495,328.50877192982455 296.66666666666663,327.1929824561403 C303.83838383838383,325.8771929824561 311.010101010101,323.5913211258362 318.1818181818182,323.39181286549706 C325.35353535353534,323.1923046051579 332.52525252525254,323.31317405504177 339.6969696969697,323.0994152046784 C346.8686868686869,322.885656354315 354.04040404040404,320.4191033138402 361.21212121212125,319.0058479532164 C368.3838383838384,317.5925925925926 375.55555555555554,316.2768031189084 382.7272727272727,314.6198830409357 C389.8989898989899,312.962962962963 397.07070707070704,313.5477582846004 404.24242424242425,309.0643274853801 C411.4141414141414,304.5808966861598 418.5858585858586,294.8830409356725 425.75757575757575,287.719298245614 C432.9292929292929,280.55555555555554 440.1010101010101,271.34502923976606 447.27272727272725,266.08187134502924 C454.44444444444446,260.8187134502924 461.6161616161616,259.7953216374269 468.7878787878788,256.140350877193 C475.95959595959596,252.48538011695908 483.13131313131316,248.2943469785575 490.3030303030303,244.15204678362574 C497.47474747474746,240.00974658869396 504.64646464646466,237.28070175438597 511.8181818181818,231.28654970760235 C518.989898989899,225.29239766081872 526.1616161616162,215.4970760233918 533.3333333333333,208.18713450292398 C540.5050505050505,200.8771929824561 547.6767676767677,193.95711500974662 554.8484848484849,187.42690058479533 C562.0202020202021,180.89668615984408 569.1919191919192,176.02339181286547 576.3636363636364,169.00584795321635 C583.5353535353536,161.98830409356722 590.7070707070707,153.50877192982458 597.8787878787879,145.3216374269006 C605.0505050505051,137.1345029239766 612.2222222222222,126.75438596491226 619.3939393939394,119.88304093567251 C626.5656565656566,113.01169590643272 633.7373737373738,108.57699805068228 640.909090909091,104.09356725146199 C648.0808080808082,99.61013645224173 655.2525252525253,96.34502923976606 662.4242424242425,92.98245614035085 C669.5959595959596,89.61988304093565 676.7676767676768,86.93957115009745 683.9393939393939,83.91812865497076 L683.9393939393939,350 L60,350 Z" fill="#dfb317" fill-opacity="0.1" />
  
  
  <path d="M60,350 L60,349.7076023391813 C67.17171717171718,349.12280701754383 74.34343434343434,348.92787524366474 81.51515151515152,347.953216374269 C88.68686868686869,346.97855750487327 95.85858585858585,344.38270595964906 103.03030303030303,343.859649122807 C110.20202020202021,343.33659228596497 117.37373737373737,343.5363822195906 124.54545454545455,343.27485380116957 C131.7171717171717,343.0133253827485 138.88888888888889,342.2514619883041 146.06060606060606,341.5204678362573 C153.23232323232324,340.7894736842105 160.4040404040404,339.66861598440545 167.57575757575756,338.8888888888889 C174.74747474747474,338.1091617933723 181.91919191919192,337.6218323586745 189.0909090909091,336.8421052631579 C196.26262626262627,336.0623781676413 203.43434343434345,334.8440545808967 210.60606060606062,334.2105263157895 C217.7777777777778,333.5769980506823 224.94949494949495,333.3333333333333 232.12121212121212,333.0409356725146 C239.2929292929293,332.74853801169587 246.46464646464645,332.7485380116959 253.63636363636363,332.4561403508772 C260.8080808080808,332.1637426900585 267.979797979798,332.1637426900585 275.1515151515151,331.2865497076023 C282.3232323232323,330.40935672514615 289.4949494949495,328.50877192982455 296.66666666666663,327.1929824561403 C303.83838383838383,325.8771929824561 311.010101010101,323.5913211258362 318.1818181818182,323.39181286549706 C325.35353535353534,323.1923046051579 332.52525252525254,323.31317405504177 339.6969696969697,323.0994152046784 C346.8686868686869,322.885656354315 354.04040404040404,320.4191033138402 361.21212121212125,319.0058479532164 C368.3838383838384,317.5925925925926 375.55555555555554,316.2768031189084 382.7272727272727,314.6198830409357 C389.8989898989899,312.962962962963 397.07070707070704,313.5477582846004 404.24242424242425,309.0643274853801 C411.4141414141414,304.5808966861598 418.5858585858586,294.8830409356725 425.75757575757575,287.719298245614 C432.9292929292929,280.55555555555554 440.1010101010101,271.34502923976606 447.27272727272725,266.08187134502924 C454.44444444444446,260.8187134502924 461.6161616161616,259.7953216374269 468.7878787878788,256.140350877193 C475.95959595959596,252.48538011695908 483.13131313131316,248.2943469785575 490.3030303030303,244.15204678362574 C497.47474747474746,240.00974658869396 504.64646464646466,237.28070175438597 511.8181818181818,231.28654970760235 C518.989898989899,225.29239766081872 526.1616161616162,215.4970760233918 533.3333333333333,208.18713450292398 C540.5050505050505,200.8771929824561 547.6767676767677,193.95711500974662 554.8484848484849,187.42690058479533 C562.0202020202021,180.89668615984408 569.1919191919192,176.02339181286547 576.3636363636364,169.00584795321635 C583.5353535353536,161.98830409356722 590.7070707070707,153.50877192982458 597.8787878787879,145.3216374269006 C605.0505050505051,137.1345029239766 612.2222222222222,126.75438596491226 619.3939393939394,119.88304093567251 C626.5656565656566,113.01169590643272 633.7373737373738,108.57699805068228 640.909090909091,104.09356725146199 C648.0808080808082,99.61013645224173 655.2525252525253,96.34502923976606 662.4242424242425,92.98245614035085 C669.5959595959596,89.61988304093565 676.7676767676768,86.93957115009745 683.9393939393939,83.91812865497076" fill="none" stroke="#dfb317" stroke-width="2.5" class="data-line-0" />
  <path d="M683.9393939393939,83.91812865497076 C691.1111111111111,83.52826510721248 698.2828282828282,83.13840155945421 705.4545454545454,82.74853801169593 C712.6262626262626,82.35867446393765 719.7979797979798,81.96881091617932 726.969696969697,81.57894736842104 C734.1414141414142,81.18908382066276 741.3131313131313,80.79922027290449 748.4848484848485,80.40935672514621 C755.6565656565657,80.01949317738793 762.8282828282828,79.62962962962962 770,79.23976608187132" fill="none" stroke="#28a745" stroke-width="2.5" stroke-dasharray="8,4" />
  <path d="M683.9393939393939,83.91812865497076 C691.1111111111111,83.4307992202729 698.2828282828282,82.99220272904485 705.4545454545454,82.4561403508772 C712.6262626262626,81.92007797270956 719.7979797979798,81.23781676413257 726.969696969697,80.70175438596493 C734.1414141414142,80.16569200779729 741.3131313131313,79.77582846003897 748.4848484848485,79.23976608187132 C755.6565656565657,78.70370370370368 762.8282828282828,78.07017543859651 770,77.4853801169591" fill="none" stroke="#d73a49" stroke-width="2.5" stroke-dasharray="8,4" />
  <g class="points">
    
    <circle cx="60" cy="349.7076023391813" r="4" fill="#dfb317" class="data-point" style="animation-delay: 1.50s" />
    <circle cx="81.51515151515152" cy="347.953216374269" r="4" fill="#dfb317" class="data-point" style="animation-delay: 1.55s" />
    <circle cx="103.03030303030303" cy="343.859649122807" r="4" fill="#dfb317" class="data-point" style="animation-delay: 1.60s" />
    <circle cx="124.54545454545455" cy="343.27485380116957" r="4" fill="#dfb317" class="data-point" style="animation-delay: 1.65s" />
    <circle cx="146.06060606060606" cy="341.5204678362573" r="4" fill="#dfb317" class="data-point" style="animation-delay: 1.70s" />
    <circle cx="167.57575757575756" cy="338.8888888888889" r="4" fill="#dfb317" class="data-point" style="animation-delay: 1.75s" />
    <circle cx="189.0909090909091" cy="336.8421052631579" r="4" fill="#dfb317" class="data-point" style="animation-delay: 1.80s" />
    <circle cx="210.60606060606062" cy="334.2105263157895" r="4" fill="#dfb317" class="data-point" style="animation-delay: 1.85s" />
    <circle cx="232.12121212121212" cy="333.0409356725146" r="4" fill="#dfb317" class="data-point" style="animation-delay: 1.90s" />
    <circle cx="253.63636363636363" cy="332.4561403508772" r="4" fill="#dfb317" class="data-point" style="animation-delay: 1.95s" />
    <circle cx="275.1515151515151" cy="331.2865497076023" r="4" fill="#dfb317" class="data-point" style="animation-delay: 2.00s" />
    <circle cx="296.66666666666663" cy="327.1929824561403" r="4" fill="#dfb317" class="data-point" style="animation-delay: 2.05s" />
    <circle cx="318.1818181818182" cy="323.39181286549706" r="4" fill="#dfb317" class="data-point" style="animation-delay: 2.10s" />
    <circle cx="339.6969696969697" cy="323.0994152046784" r="4" fill="#dfb317" class="data-point" style="animation-delay: 2.15s" />
    <circle cx="361.21212121212125" cy="319.0058479532164" r="4" fill="#dfb317" class="data-point" style="animation-delay: 2.20s" />
    <circle cx="382.7272727272727" cy="314.6198830409357" r="4" fill="#dfb317" class="data-point" style="animation-delay: 2.25s" />
    <circle cx="404.24242424242425" cy="309.0643274853801" r="4" fill="#dfb317" class="data-point" style="animation-delay: 2.30s" />
    <circle cx="425.75757575757575" cy="287.719298245614" r="4" fill="#dfb317" class="data-point" style="animation-delay: 2.35s" />
    <circle cx="447.27272727272725" cy="266.08187134502924" r="4" fill="#dfb317" class="data-point" style="animation-delay: 2.40s" />
    <circle cx="468.7878787878788" cy="256.140350877193" r="4" fill="#dfb317" class="data-point" style="animation-delay: 2.45s" />
    <circle cx="490.3030303030303" cy="244.15204678362574" r="4" fill="#dfb317" class="data-point" style="animation-delay: 2.50s" />
    <circle cx="511.8181818181818" cy="231.28654970760235" r="4" fill="#dfb317" class="data-point" style="animation-delay: 2.55s" />
    <circle cx="533.3333333333333" cy="208.18713450292398" r="4" fill="#dfb317" class="data-point" style="animation-delay: 2.60s" />
    <circle cx="554.8484848484849" cy="187.42690058479533" r="4" fill="#dfb317" class="data-point" style="animation-delay: 2.65s" />
    <circle cx="576.3636363636364" cy="169.00584795321635" r="4" fill="#dfb317" class="data-point" style="animation-delay: 2.70s" />
    <circle cx="597.8787878787879" cy="145.3216374269006" r="4" fill="#dfb317" class="data-point" style="animation-delay: 2.75s" />
    <circle cx="619.3939393939394" cy="119.88304093567251" r="4" fill="#dfb317" class="data-point" style="animation-delay: 2.80s" />
    <circle cx="640.909090909091" cy="104.09356725146199" r="4" fill="#dfb317" class="data-point" style="animation-delay: 2.85s" />
    <circle cx="662.4242424242425" cy="92.98245614035085" r="4" fill="#dfb317" class="data-point" style="animation-delay: 2.90s" />
    <circle cx="683.9393939393939" cy="83.91812865497076" r="4" fill="#dfb317" class="data-point" style="animation-delay: 2.95s" />
  </g>
</svg>