<svg xmlns="http://www.w3.org/2000/svg" viewBox="0 0 800 400" width="800" height="400">
  <style>
    @keyframes drawLine {
      to { stroke-dashoffset: 0; }
    }
    @keyframes fadeInPoint {
      from { opacity: 0; }
      to { opacity: 1; }
    }
    .data-line-0 {
      stroke-dasharray: 1071;
      stroke-dashoffset: 1071;
      animation: drawLine 2s ease-out forwards;
    }
    .data-point {
      opacity: 0;
      animation: fadeInPoint 0.5s ease-out forwards;
    }
    .chart-bg { fill: #fff; }
    .chart-text { fill: #24292e; }
    .chart-muted { fill: #6a737d; }
    .chart-grid { stroke: #eee; }
    .chart-axis { stroke: #6a737d; }
    @media (prefers-color-scheme: dark) {
      .chart-bg { fill: #0d1117; }
      .chart-text { fill: #e6edf3; }
      .chart-muted { fill: #8b949e; }
      .chart-grid { stroke: #21262d; }
      .chart-axis { stroke: #8b949e; }
    }
  </style>
  <rect width="800" height="400" class="chart-bg" />
  <text x="400" y="14" text-anchor="middle" class="chart-text" font-size="16" font-weight="bold" font-family="-apple-system, BlinkMacSystemFont, 'Segoe UI', Helvetica, Arial, sans-serif">Growth Forecast</text>
  <g class="legend">
    <rect x="220" y="31" width="12" height="3" fill="#dfb317" />
    <line x1="220" y1="32.5" x2="232" y2="32.5" stroke="#dfb317" stroke-width="2" />
    <text x="236" y="36" class="chart-text" font-size="10" font-family="-apple-system, BlinkMacSystemFont, 'Segoe UI', Helvetica, Arial, sans-serif">Star History</text>
    <rect x="340" y="31" width="12" height="3" fill="#28a745" rx="1" />
    <line x1="340" y1="32.5" x2="352" y2="32.5" stroke="#28a745" stroke-width="2" stroke-dasharray="4,2" />
    <text x="356" y="36" class="chart-text" font-size="10" font-family="-apple-system, BlinkMacSystemFont, 'Segoe UI', Helvetica, Arial, sans-serif">Linear Regression</text>
    <rect x="460" y="31" width="12" height="3" fill="#d73a49" rx="1" />
    <line x1="460" y1="32.5" x2="472" y2="32.5" stroke="#d73a49" stroke-width="2" stroke-dasharray="4,2" />
    <text x="476" y="36" class="chart-text" font-size="10" font-family="-apple-system, BlinkMacSystemFont, 'Segoe UI', Helvetica, Arial, sans-serif">Weighted Moving Average</text>
  </g>
  <g class="grid">
    <line x1="60" y1="350" x2="770" y2="350" class="chart-grid" stroke-opacity="0.3" />
    <text x="52" y="354" text-anchor="end" class="chart-muted" font-size="11" font-family="-apple-system, BlinkMacSystemFont, 'Segoe UI', Helvetica, Arial, sans-serif">0</text>
    <line x1="60" y1="291.97292069632493" x2="770" y2="291.97292069632493" class="chart-grid" stroke-opacity="0.3" />
    <text x="52" y="295.97292069632493" text-anchor="end" class="chart-muted" font-size="11" font-family="-apple-system, BlinkMacSystemFont, 'Segoe UI', Helvetica, Arial, sans-serif">200</text>
    <line x1="60" y1="233.94584139264992" x2="770" y2="233.94584139264992" class="chart-grid" stroke-opacity="0.3" />
    <text x="52" y="237.94584139264992" text-anchor="end" class="chart-muted" font-size="11" font-family="-apple-system, BlinkMacSystemFont, 'Segoe UI', Helvetica, Arial, sans-serif">400</text>
    <line x1="60" y1="175.91876208897486" x2="770" y2="175.91876208897486" class="chart-grid" stroke-opacity="0.3" />
    <text x="52" y="179.91876208897486" text-anchor="end" class="chart-muted" font-size="11" font-family="-apple-system, BlinkMacSystemFont, 'Segoe UI', Helvetica, Arial, sans-serif">600</text>
    <line x1="60" y1="117.89168278529982" x2="770" y2="117.89168278529982" class="chart-grid" stroke-opacity="0.3" />
    <text x="52" y="121.89168278529982" text-anchor="end" class="chart-muted" font-size="11" font-family="-apple-system, BlinkMacSystemFont, 'Segoe UI', Helvetica, Arial, sans-serif">800</text>
    <line x1="60" y1="59.86460348162473" x2="770" y2="59.86460348162473" class="chart-grid" stroke-opacity="0.3" />
    <text x="52" y="63.86460348162473" text-anchor="end" class="chart-muted" font-size="11" font-family="-apple-system, BlinkMacSystemFont, 'Segoe UI', Helvetica, Arial, sans-serif">1K</text>
  </g>
  <g class="milestones">
    
  </g>
  <g class="x-axis">
    <text x="60" y="370" text-anchor="middle" class="chart-muted" font-size="11" font-family="-apple-system, BlinkMacSystemFont, 'Segoe UI', Helvetica, Arial, sans-serif">Feb 28</text>
    <text x="146.06060606060606" y="370" text-anchor="middle" class="chart-muted" font-size="11" font-family="-apple-system, BlinkMacSystemFont, 'Segoe UI', Helvetica, Arial, sans-serif">Oct 12</text>
    <text x="232.12121212121212" y="370" text-anchor="middle" class="chart-muted" font-size="11" font-family="-apple-system, BlinkMacSystemFont, 'Segoe UI', Helvetica, Arial, sans-serif">May 26</text>
    <text x="318.1818181818182" y="370" text-anchor="middle" class="chart-muted" font-size="11" font-family="-apple-system, BlinkMacSystemFont, 'Segoe UI', Helvetica, Arial, sans-serif">Jan 6</text>
    <text x="404.24242424242425" y="370" text-anchor="middle" class="chart-muted" font-size="11" font-family="-apple-system, BlinkMacSystemFont, 'Segoe UI', Helvetica, Arial, sans-serif">Aug 19</text>
    <text x="490.3030303030303" y="370" text-anchor="middle" class="chart-muted" font-size="11" font-family="-apple-system, BlinkMacSystemFont, 'Segoe UI', Helvetica, Arial, sans-serif">Apr 2</text>
    <text x="576.3636363636364" y="370" text-anchor="middle" class="chart-muted" font-size="11" font-family="-apple-system, BlinkMacSystemFont, 'Segoe UI', Helvetica, Arial, sans-serif">Nov 13</text>
    <text x="662.4242424242425" y="370" text-anchor="middle" class="chart-muted" font-size="11" font-family="-apple-system, BlinkMacSystemFont, 'Segoe UI', Helvetica, Arial, sans-serif">Jun 27</text>
    <text x="748.4848484848485" y="370" text-anchor="middle" class="chart-muted" font-size="11" font-family="-apple-system, BlinkMacSystemFont, 'Segoe UI', Helvetica, Arial, sans-serif">Week 3</text>
    <text x="770" y="370" text-anchor="middle" class="chart-muted" font-size="11" font-family="-apple-system, BlinkMacSystemFont, 'Segoe UI', Helvetica, Arial, sans-serif">Week 4</text>
  </g>
  <line x1="60" y1="50" x2="60" y2="350" class="chart-axis" stroke-width="1" />
  <line x1="60" y1="350" x2="770" y2="350" class="chart-axis" stroke-width="1" />
  <path d="M60,350 L60,349.7098646034816 C67.17171717171718,349.1295938104449 74.34343434343434,348.93617021276594 81.51515151515152,347.96905222437135 C88.68686868686869,347.00193423597676 95.85858585858585,344.42616664854927 103.03030303030303,343.9071566731141 C110.20202020202021,343.38814669767896 117.37373737373737,343.58639086779493 124.54545454545455,343.3268858800774 C131.7171717171717,343.06738089235984 138.88888888888889,342.31141199226306 146.06060606060606,341.58607350096713 C153.23232323232324,340.8607350096712 160.4040404040404,339.7485493230174 167.57575757575756,338.97485493230175 C174.74747474747474,338.2011605415861 181.91919191919192,337.71760154738877 189.0909090909091,336.9439071566731 C196.26262626262627,336.17021276595744 203.43434343434345,334.9613152804642 210.60606060606062,334.3326885880077 C217.7777777777778,333.70406189555126 224.94949494949495,333.51063829787233 232.12121212121212,333.17214700193426 C239.2929292929293,332.8336557059962 246.46464646464645,332.64023210831726 253.63636363636363,332.30174081237914 C260.8080808080808,331.963249516441 267.979797979798,332.0599613152805 275.1515151515151,331.1411992263056 C282.3232323232323,330.22243713733076 289.4949494949495,328.09477756286265 296.66666666666663,326.78916827853 C303.83838383838383,325.48355899419727 311.010101010101,323.3075435203095 318.1818181818182,323.3075435203095 C325.35353535353534,323.3075435203095 332.52525252525254,323.3075435203095 339.6969696969697,323.3075435203095 C346.8686868686869,323.3075435203095 354.04040404040404,318.7137330754352 361.21212121212125,317.2147001934236 C368.3838383838384,315.715667311412 375.55555555555554,315.4407099160975 382.7272727272727,314.3133462282398 C389.8989898989899,313.18598254038216 397.07070707070704,314.18277871348795 404.24242424242425,309.38104448742746 C411.4141414141414,304.57931026136697 418.5858585858586,288.39458413926496 425.75757575757575,280.9477756286267 C432.9292929292929,273.5009671179884 440.1010101010101,268.81044487427465 447.27272727272725,264.7001934235977 C454.44444444444446,260.5899419729207 461.6161616161616,260.1547388781432 468.7878787878788,256.2862669245648 C475.95959595959596,252.41779497098648 483.13131313131316,245.88974854932303 490.3030303030303,241.48936170212767 C497.47474747474746,237.0889748549323 504.64646464646466,235.49323017408122 511.8181818181818,229.88394584139263 C518.989898989899,224.27466150870404 526.1616161616162,214.70019342359765 533.3333333333333,207.83365570599614 C540.5050505050505,200.96711798839456 547.6767676767677,195.06769825918764 554.8484848484849,188.68471953578336 C562.0202020202021,182.3017408123791 569.1919191919192,178.04642166344294 576.3636363636364,169.5357833655706 C583.5353535353536,161.02514506769828 590.7070707070707,146.0831721470019 597.8787878787879,137.6208897485493 C605.0505050505051,129.1586073500967 612.2222222222222,124.32301740812376 619.3939393939394,118.76208897485492 C626.5656565656566,113.20116054158605 633.7373737373738,108.65570599613153 640.909090909091,104.25531914893617 C648.0808080808082,99.85493230174083 655.2525252525253,95.79303675048357 662.4242424242425,92.3597678916828 C669.5959595959596,88.92649903288203 676.7676767676768,86.55705996131529 683.9393939393939,83.65570599613153 L683.9393939393939,350 L60,350 Z" fill="#dfb317" fill-opacity="0.1" />
  
  
  <path d="M60,350 L60,349.7098646034816 C67.17171717171718,349.1295938104449 74.34343434343434,348.93617021276594 81.51515151515152,347.96905222437135 C88.68686868686869,347.00193423597676 95.85858585858585,344.42616664854927 103.03030303030303,343.9071566731141 C110.20202020202021,343.38814669767896 117.37373737373737,343.58639086779493 124.54545454545455,343.3268858800774 C131.7171717171717,343.06738089235984 138.88888888888889,342.31141199226306 146.06060606060606,341.58607350096713 C153.23232323232324,340.8607350096712 160.4040404040404,339.7485493230174 167.57575757575756,338.97485493230175 C174.74747474747474,338.2011605415861 181.91919191919192,337.71760154738877 189.0909090909091,336.9439071566731 C196.26262626262627,336.17021276595744 203.43434343434345,334.9613152804642 210.60606060606062,334.3326885880077 C217.7777777777778,333.70406189555126 224.94949494949495,333.51063829787233 232.12121212121212,333.17214700193426 C239.2929292929293,332.8336557059962 246.46464646464645,332.64023210831726 253.63636363636363,332.30174081237914 C260.8080808080808,331.963249516441 267.979797979798,332.0599613152805 275.1515151515151,331.1411992263056 C282.3232323232323,330.22243713733076 289.4949494949495,328.09477756286265 296.66666666666663,326.78916827853 C303.83838383838383,325.48355899419727 311.010101010101,323.3075435203095 318.1818181818182,323.3075435203095 C325.35353535353534,323.3075435203095 332.52525252525254,323.3075435203095 339.6969696969697,323.3075435203095 C346.8686868686869,323.3075435203095 354.04040404040404,318.7137330754352 361.21212121212125,317.2147001934236 C368.3838383838384,315.715667311412 375.55555555555554,315.4407099160975 382.7272727272727,314.3133462282398 C389.8989898989899,313.18598254038216 397.07070707070704,314.18277871348795 404.24242424242425,309.38104448742746 C411.4141414141414,304.57931026136697 418.5858585858586,288.39458413926496 425.75757575757575,280.9477756286267 C432.9292929292929,273.5009671179884 440.1010101010101,268.81044487427465 447.27272727272725,264.7001934235977 C454.44444444444446,260.5899419729207 461.6161616161616,260.1547388781432 468.7878787878788,256.2862669245648 C475.95959595959596,252.41779497098648 483.13131313131316,245.88974854932303 490.3030303030303,241.48936170212767 C497.47474747474746,237.0889748549323 504.64646464646466,235.49323017408122 511.8181818181818,229.88394584139263 C518.989898989899,224.27466150870404 526.1616161616162,214.70019342359765 533.3333333333333,207.83365570599614 C540.5050505050505,200.96711798839456 547.6767676767677,195.06769825918764 554.8484848484849,188.68471953578336 C562.0202020202021,182.3017408123791 569.1919191919192,178.04642166344294 576.3636363636364,169.5357833655706 C583.5353535353536,161.02514506769828 590.7070707070707,146.0831721470019 597.8787878787879,137.6208897485493 C605.0505050505051,129.1586073500967 612.2222222222222,124.32301740812376 619.3939393939394,118.76208897485492 C626.5656565656566,113.20116054158605 633.7373737373738,108.65570599613153 640.909090909091,104.25531914893617 C648.0808080808082,99.85493230174083 655.2525252525253,95.79303675048357 662.4242424242425,92.3597678916828 C669.5959595959596,88.92649903288203 676.7676767676768,86.55705996131529 683.9393939393939,83.65570599613153" fill="none" stroke="#dfb317" stroke-width="2.5" class="data-line-0" />
  <path d="M683.9393939393939,83.65570599613153 C691.1111111111111,83.26885880077369 698.2828282828282,82.88201160541584 705.4545454545454,82.49516441005801 C712.6262626262626,82.10831721470018 719.7979797979798,81.72147001934238 726.969696969697,81.33462282398455 C734.1414141414142,80.94777562862672 741.3131313131313,80.56092843326886 748.4848484848485,80.17408123791103 C755.6565656565657,79.7872340425532 762.8282828282828,79.40038684719538 770,79.01353965183756" fill="none" stroke="#28a745" stroke-width="2.5" stroke-dasharray="8,4" />
  <path d="M683.9393939393939,83.65570599613153 C691.1111111111111,83.17214700193425 698.2828282828282,82.73694390715669 705.4545454545454,82.20502901353967 C712.6262626262626,81.67311411992266 719.7979797979798,80.99613152804643 726.969696969697,80.46421663442942 C734.1414141414142,79.9323017408124 741.3131313131313,79.54545454545458 748.4848484848485,79.01353965183756 C755.6565656565657,78.48162475822055 762.8282828282828,77.85299806576406 770,77.27272727272731" fill="none" stroke="#d73a49" stroke-width="2.5" stroke-dasharray="8,4" />
  <g class="points">
    
    <circle cx="60" cy="349.7098646034816" r="4" fill="#dfb317" class="data-point" style="animation-delay: 1.50s" />
    <circle cx="81.51515151515152" cy="347.96905222437135" r="4" fill="#dfb317" class="data-point" style="animation-delay: 1.55s" />
    <circle cx="103.03030303030303" cy="343.9071566731141" r="4" fill="#dfb317" class="data-point" style="animation-delay: 1.60s" />
    <circle cx="124.54545454545455" cy="343.3268858800774" r="4" fill="#dfb317" class="data-point" style="animation-delay: 1.65s" />
    <circle cx="146.06060606060606" cy="341.58607350096713" r="4" fill="#dfb317" class="data-point" style="animation-delay: 1.70s" />
    <circle cx="167.57575757575756" cy="338.97485493230175" r="4" fill="#dfb317" class="data-point" style="animation-delay: 1.75s" />
    <circle cx="189.0909090909091" cy="336.9439071566731" r="4" fill="#dfb317" class="data-point" style="animation-delay: 1.80s" />
    <circle cx="210.60606060606062" cy="334.3326885880077" r="4" fill="#dfb317" class="data-point" style="animation-delay: 1.85s" />
    <circle cx="232.12121212121212" cy="333.17214700193426" r="4" fill="#dfb317" class="data-point" style="animation-delay: 1.90s" />
    <circle cx="253.63636363636363" cy="332.30174081237914" r="4" fill="#dfb317" class="data-point" style="animation-delay: 1.95s" />
    <circle cx="275.1515151515151" cy="331.1411992263056" r="4" fill="#dfb317" class="data-point" style="animation-delay: 2.00s" />
    <circle cx="296.66666666666663" cy="326.78916827853" r="4" fill="#dfb317" class="data-point" style="animation-delay: 2.05s" />
    <circle cx="318.1818181818182" cy="323.3075435203095" r="4" fill="#dfb317" class="data-point" style="animation-delay: 2.10s" />
    <circle cx="339.6969696969697" cy="323.3075435203095" r="4" fill="#dfb317" class="data-point" style="animation-delay: 2.15s" />
    <circle cx="361.21212121212125" cy="317.2147001934236" r="4" fill="#dfb317" class="data-point" style="animation-delay: 2.20s" />
    <circle cx="382.7272727272727" cy="314.3133462282398" r="4" fill="#dfb317" class="data-point" style="animation-delay: 2.25s" />
    <circle cx="404.24242424242425" cy="309.38104448742746" r="4" fill="#dfb317" class="data-point" style="animation-delay: 2.30s" />
    <circle cx="425.75757575757575" cy="280.9477756286267" r="4" fill="#dfb317" class="data-point" style="animation-delay: 2.35s" />
    <circle cx="447.27272727272725" cy="264.7001934235977" r="4" fill="#dfb317" class="data-point" style="animation-delay: 2.40s" />
    <circle cx="468.7878787878788" cy="256.2862669245648" r="4" fill="#dfb317" class="data-point" style="animation-delay: 2.45s" />
    <circle cx="490.3030303030303" cy="241.48936170212767" r="4" fill="#dfb317" class="data-point" style="animation-delay: 2.50s" />
    <circle cx="511.8181818181818" cy="229.88394584139263" r="4" fill="#dfb317" class="data-point" style="animation-delay: 2.55s" />
    <circle cx="533.3333333333333" cy="207.83365570599614" r="4" fill="#dfb317" class="data-point" style="animation-delay: 2.60s" />
    <circle cx="554.8484848484849" cy="188.68471953578336" r="4" fill="#dfb317" class="data-point" style="animation-delay: 2.65s" />
    <circle cx="576.3636363636364" cy="169.5357833655706" r="4" fill="#dfb317" class="data-point" style="animation-delay: 2.70s" />
    <circle cx="597.8787878787879" cy="137.6208897485493" r="4" fill="#dfb317" class="data-point" style="animation-delay: 2.75s" />
    <circle cx="619.3939393939394" cy="118.76208897485492" r="4" fill="#dfb317" class="data-point" style="animation-delay: 2.80s" />
    <circle cx="640.909090909091" cy="104.25531914893617" r="4" fill="#dfb317" class="data-point" style="animation-delay: 2.85s" />
    <circle cx="662.4242424242425" cy="92.3597678916828" r="4" fill="#dfb317" class="data-point" style="animation-delay: 2.90s" />
    <circle cx="683.9393939393939" cy="83.65570599613153" r="4" fill="#dfb317" class="data-point" style="animation-delay: 2.95s" />
  </g>
</svg>