<svg xmlns="http://www.w3.org/2000/svg" viewBox="0 0 800 400" width="800" height="400">
  <style>
    @keyframes drawLine {
      to { stroke-dashoffset: 0; }
    }
    @keyframes fadeInPoint {
      from { opacity: 0; }
      to { opacity: 1; }
    }
    .data-line-0 {
      stroke-dasharray: 1072;
      stroke-dashoffset: 1072;
      animation: drawLine 2s ease-out forwards;
    }
    .data-point {
      opacity: 0;
      animation: fadeInPoint 0.5s ease-out forwards;
    }
    .chart-bg { fill: #fff; }
    .chart-text { fill: #24292e; }
    .chart-muted { fill: #6a737d; }
    .chart-grid { stroke: #eee; }
    .chart-axis { stroke: #6a737d; }
    @media (prefers-color-scheme: dark) {
      .chart-bg { fill: #0d1117; }
      .chart-text { fill: #e6edf3; }
      .chart-muted { fill: #8b949e; }
      .chart-grid { stroke: #21262d; }
      .chart-axis { stroke: #8b949e; }
    }
  </style>
  <rect width="800" height="400" class="chart-bg" />
  <text x="400" y="14" text-anchor="middle" class="chart-text" font-size="16" font-weight="bold" font-family="-apple-system, BlinkMacSystemFont, 'Segoe UI', Helvetica, Arial, sans-serif">Growth Forecast</text>
  <g class="legend">
    <rect x="220" y="31" width="12" height="3" fill="#dfb317" />
    <line x1="220" y1="32.5" x2="232" y2="32.5" stroke="#dfb317" stroke-width="2" />
    <text x="236" y="36" class="chart-text" font-size="10" font-family="-apple-system, BlinkMacSystemFont, 'Segoe UI', Helvetica, Arial, sans-serif">Star History</text>
    <rect x="340" y="31" width="12" height="3" fill="#28a745" rx="1" />
    <line x1="340" y1="32.5" x2="352" y2="32.5" stroke="#28a745" stroke-width="2" stroke-dasharray="4,2" />
    <text x="356" y="36" class="chart-text" font-size="10" font-family="-apple-system, BlinkMacSystemFont, 'Segoe UI', Helvetica, Arial, sans-serif">Linear Regression</text>
    <rect x="460" y="31" width="12" height="3" fill="#d73a49" rx="1" />
    <line x1="460" y1="32.5" x2="472" y2="32.5" stroke="#d73a49" stroke-width="2" stroke-dasharray="4,2" />
    <text x="476" y="36" class="chart-text" font-size="10" font-family="-apple-system, BlinkMacSystemFont, 'Segoe UI', Helvetica, Arial, sans-serif">Weighted Moving Average</text>
  </g>
  <g class="grid">
    <line x1="60" y1="350" x2="770" y2="350" class="chart-grid" stroke-opacity="0.3" />
    <text x="52" y="354" text-anchor="end" class="chart-muted" font-size="11" font-family="-apple-system, BlinkMacSystemFont, 'Segoe UI', Helvetica, Arial, sans-serif">0</text>
    <line x1="60" y1="293.609022556391" x2="770" y2="293.609022556391" class="chart-grid" stroke-opacity="0.3" />
    <text x="52" y="297.609022556391" text-anchor="end" class="chart-muted" font-size="11" font-family="-apple-system, BlinkMacSystemFont, 'Segoe UI', Helvetica, Arial, sans-serif">200</text>
    <line x1="60" y1="237.21804511278197" x2="770" y2="237.21804511278197" class="chart-grid" stroke-opacity="0.3" />
    <text x="52" y="241.21804511278197" text-anchor="end" class="chart-muted" font-size="11" font-family="-apple-system, BlinkMacSystemFont, 'Segoe UI', Helvetica, Arial, sans-serif">400</text>
    <line x1="60" y1="180.82706766917292" x2="770" y2="180.82706766917292" class="chart-grid" stroke-opacity="0.3" />
    <text x="52" y="184.82706766917292" text-anchor="end" class="chart-muted" font-size="11" font-family="-apple-system, BlinkMacSystemFont, 'Segoe UI', Helvetica, Arial, sans-serif">600</text>
    <line x1="60" y1="124.43609022556393" x2="770" y2="124.43609022556393" class="chart-grid" stroke-opacity="0.3" />
    <text x="52" y="128.43609022556393" text-anchor="end" class="chart-muted" font-size="11" font-family="-apple-system, BlinkMacSystemFont, 'Segoe UI', Helvetica, Arial, sans-serif">800</text>
    <line x1="60" y1="68.04511278195491" x2="770" y2="68.04511278195491" class="chart-grid" stroke-opacity="0.3" />
    <text x="52" y="72.04511278195491" text-anchor="end" class="chart-muted" font-size="11" font-family="-apple-system, BlinkMacSystemFont, 'Segoe UI', Helvetica, Arial, sans-serif">1K</text>
  </g>
  <g class="milestones">
    
  </g>
  <g class="x-axis">
    <text x="60" y="370" text-anchor="middle" class="chart-muted" font-size="11" font-family="-apple-system, BlinkMacSystemFont, 'Segoe UI', Helvetica, Arial, sans-serif">Feb 28</text>
    <text x="146.06060606060606" y="370" text-anchor="middle" class="chart-muted" font-size="11" font-family="-apple-system, BlinkMacSystemFont, 'Segoe UI', Helvetica, Arial, sans-serif">Oct 18</text>
    <text x="232.12121212121212" y="370" text-anchor="middle" class="chart-muted" font-size="11" font-family="-apple-system, BlinkMacSystemFont, 'Segoe UI', Helvetica, Arial, sans-serif">Jun 6</text>
    <text x="318.1818181818182" y="370" text-anchor="middle" class="chart-muted" font-size="11" font-family="-apple-system, BlinkMacSystemFont, 'Segoe UI', Helvetica, Arial, sans-serif">Jan 24</text>
    <text x="404.24242424242425" y="370" text-anchor="middle" class="chart-muted" font-size="11" font-family="-apple-system, BlinkMacSystemFont, 'Segoe UI', Helvetica, Arial, sans-serif">Sep 12</text>
    <text x="490.3030303030303" y="370" text-anchor="middle" class="chart-muted" font-size="11" font-family="-apple-system, BlinkMacSystemFont, 'Segoe UI', Helvetica, Arial, sans-serif">May 1</text>
    <text x="576.3636363636364" y="370" text-anchor="middle" class="chart-muted" font-size="11" font-family="-apple-system, BlinkMacSystemFont, 'Segoe UI', Helvetica, Arial, sans-serif">Dec 19</text>
    <text x="662.4242424242425" y="370" text-anchor="middle" class="chart-muted" font-size="11" font-family="-apple-system, BlinkMacSystemFont, 'Segoe UI', Helvetica, Arial, sans-serif">Aug 8</text>
    <text x="748.4848484848485" y="370" text-anchor="middle" class="chart-muted" font-size="11" font-family="-apple-system, BlinkMacSystemFont, 'Segoe UI', Helvetica, Arial, sans-serif">Week 3</text>
    <text x="770" y="370" text-anchor="middle" class="chart-muted" font-size="11" font-family="-apple-system, BlinkMacSystemFont, 'Segoe UI', Helvetica, Arial, sans-serif">Week 4</text>
  </g>
  <line x1="60" y1="50" x2="60" y2="350" class="chart-axis" stroke-width="1" />
  <line x1="60" y1="350" x2="770" y2="350" class="chart-axis" stroke-width="1" />
  <path d="M60,350 L60,349.71804511278197 C67.17171717171718,349.1541353383459 74.34343434343434,349.0131578947369 81.51515151515152,348.0263157894737 C88.68686868686869,347.0394736842105 95.85858585858585,344.04273746347496 103.03030303030303,343.796992481203 C110.20202020202021,343.55124749893105 117.37373737373737,343.65326914651297 124.54545454545455,343.51503759398497 C131.7171717171717,343.376806041457 138.88888888888889,341.9642857142857 146.06060606060606,341.2593984962406 C153.23232323232324,340.5545112781955 160.4040404040404,340.03759398496237 167.57575757575756,339.2857142857143 C174.74747474747474,338.5338345864662 181.91919191919192,337.5 189.0909090909091,336.7481203007519 C196.26262626262627,335.9962406015038 203.43434343434345,335.2913533834586 210.60606060606062,334.77443609022555 C217.7777777777778,334.2575187969925 224.94949494949495,334.06954887218046 232.12121212121212,333.6466165413534 C239.2929292929293,333.22368421052636 246.46464646464645,332.550988354059 253.63636363636363,332.2368421052632 C260.8080808080808,331.9226958564674 267.979797979798,332.1763430655985 275.1515151515151,331.390977443609 C282.3232323232323,330.60561182161956 289.4949494949495,327.81954887218046 296.66666666666663,326.59774436090225 C303.83838383838383,325.37593984962405 311.010101010101,324.70909374688205 318.1818181818182,324.0601503759398 C325.35353535353534,323.4112070049976 332.52525252525254,323.9019095838096 339.6969696969697,322.6503759398496 C346.8686868686869,321.3988422958896 354.04040404040404,318.09210526315786 361.21212121212125,316.4473684210526 C368.3838383838384,314.80263157894734 375.55555555555554,313.4209122341545 382.7272727272727,312.78195488721803 C389.8989898989899,312.1429975402815 397.07070707070704,312.72107444467133 404.24242424242425,309.3984962406015 C411.4141414141414,306.0759180365317 418.5858585858586,284.02255639097746 425.75757575757575,276.1278195488722 C432.9292929292929,268.23308270676694 440.1010101010101,265.9774436090226 447.27272727272725,262.03007518796994 C454.44444444444446,258.0827067669173 461.6161616161616,256.390977443609 468.7878787878788,252.4436090225564 C475.95959595959596,248.49624060150376 483.13131313131316,244.17293233082705 490.3030303030303,238.34586466165413 C497.47474747474746,232.5187969924812 504.64646464646466,224.3421052631579 511.8181818181818,217.4812030075188 C518.989898989899,210.6203007518797 526.1616161616162,203.52443609022552 533.3333333333333,197.18045112781954 C540.5050505050505,190.8364661654135 547.6767676767677,185.05639097744358 554.8484848484849,179.4172932330827 C562.0202020202021,173.77819548872182 569.1919191919192,171.42857142857144 576.3636363636364,163.34586466165416 C583.5353535353536,155.26315789473688 590.7070707070707,138.95676691729324 597.8787878787879,130.92105263157896 C605.0505050505051,122.88533834586467 612.2222222222222,119.50187969924811 619.3939393939394,115.13157894736841 C626.5656565656566,110.76127819548869 633.7373737373738,108.12969924812028 640.909090909091,104.69924812030072 C648.0808080808082,101.26879699248119 655.2525252525253,98.0733082706767 662.4242424242425,94.54887218045113 C669.5959595959596,91.02443609022558 676.7676767676768,87.21804511278194 683.9393939393939,83.55263157894734 L683.9393939393939,350 L60,350 Z" fill="#dfb317" fill-opacity="0.1" />
  
  
  <path d="M60,350 L60,349.71804511278197 C67.17171717171718,349.1541353383459 74.34343434343434,349.0131578947369 81.51515151515152,348.0263157894737 C88.68686868686869,347.0394736842105 95.85858585858585,344.04273746347496 103.03030303030303,343.796992481203 C110.20202020202021,343.55124749893105 117.37373737373737,343.65326914651297 124.54545454545455,343.51503759398497 C131.7171717171717,343.376806041457 138.88888888888889,341.9642857142857 146.06060606060606,341.2593984962406 C153.23232323232324,340.5545112781955 160.4040404040404,340.03759398496237 167.57575757575756,339.2857142857143 C174.74747474747474,338.5338345864662 181.91919191919192,337.5 189.0909090909091,336.7481203007519 C196.26262626262627,335.9962406015038 203.43434343434345,335.2913533834586 210.60606060606062,334.77443609022555 C217.7777777777778,334.2575187969925 224.94949494949495,334.06954887218046 232.12121212121212,333.6466165413534 C239.2929292929293,333.22368421052636 246.46464646464645,332.550988354059 253.63636363636363,332.2368421052632 C260.8080808080808,331.9226958564674 267.979797979798,332.1763430655985 275.1515151515151,331.390977443609 C282.3232323232323,330.60561182161956 289.4949494949495,327.81954887218046 296.66666666666663,326.59774436090225 C303.83838383838383,325.37593984962405 311.010101010101,324.70909374688205 318.1818181818182,324.0601503759398 C325.35353535353534,323.4112070049976 332.52525252525254,323.9019095838096 339.6969696969697,322.6503759398496 C346.8686868686869,321.3988422958896 354.04040404040404,318.09210526315786 361.21212121212125,316.4473684210526 C368.3838383838384,314.80263157894734 375.55555555555554,313.4209122341545 382.7272727272727,312.78195488721803 C389.8989898989899,312.1429975402815 397.07070707070704,312.72107444467133 404.24242424242425,309.3984962406015 C411.4141414141414,306.0759180365317 418.5858585858586,284.02255639097746 425.75757575757575,276.1278195488722 C432.9292929292929,268.23308270676694 440.1010101010101,265.9774436090226 447.27272727272725,262.03007518796994 C454.44444444444446,258.0827067669173 461.6161616161616,256.390977443609 468.7878787878788,252.4436090225564 C475.95959595959596,248.49624060150376 483.13131313131316,244.17293233082705 490.3030303030303,238.34586466165413 C497.47474747474746,232.5187969924812 504.64646464646466,224.3421052631579 511.8181818181818,217.4812030075188 C518.989898989899,210.6203007518797 526.1616161616162,203.52443609022552 533.3333333333333,197.18045112781954 C540.5050505050505,190.8364661654135 547.6767676767677,185.05639097744358 554.8484848484849,179.4172932330827 C562.0202020202021,173.77819548872182 569.1919191919192,171.42857142857144 576.3636363636364,163.34586466165416 C583.5353535353536,155.26315789473688 590.7070707070707,138.95676691729324 597.8787878787879,130.92105263157896 C605.0505050505051,122.88533834586467 612.2222222222222,119.50187969924811 619.3939393939394,115.13157894736841 C626.5656565656566,110.76127819548869 633.7373737373738,108.12969924812028 640.909090909091,104.69924812030072 C648.0808080808082,101.26879699248119 655.2525252525253,98.0733082706767 662.4242424242425,94.54887218045113 C669.5959595959596,91.02443609022558 676.7676767676768,87.21804511278194 683.9393939393939,83.55263157894734" fill="none" stroke="#dfb317" stroke-width="2.5" class="data-line-0" />
  <path d="M683.9393939393939,83.55263157894734 C691.1111111111111,83.1766917293233 698.2828282828282,82.80075187969926 705.4545454545454,82.4248120300752 C712.6262626262626,82.04887218045114 719.7979797979798,81.67293233082707 726.969696969697,81.296992481203 C734.1414141414142,80.92105263157895 741.3131313131313,80.54511278195487 748.4848484848485,80.16917293233081 C755.6565656565657,79.79323308270675 762.8282828282828,79.41729323308267 770,79.04135338345861" fill="none" stroke="#28a745" stroke-width="2.5" stroke-dasharray="8,4" />
  <path d="M683.9393939393939,83.55263157894734 C691.1111111111111,83.08270676691727 698.2828282828282,82.65977443609019 705.4545454545454,82.14285714285711 C712.6262626262626,81.62593984962403 719.7979797979798,80.96804511278192 726.969696969697,80.45112781954884 C734.1414141414142,79.93421052631577 741.3131313131313,79.55827067669169 748.4848484848485,79.04135338345861 C755.6565656565657,78.52443609022554 762.8282828282828,77.91353383458643 770,77.34962406015035" fill="none" stroke="#d73a49" stroke-width="2.5" stroke-dasharray="8,4" />
  <g class="points">
    
    <circle cx="60" cy="349.71804511278197" r="4" fill="#dfb317" class="data-point" style="animation-delay: 1.50s" />
    <circle cx="81.51515151515152" cy="348.0263157894737" r="4" fill="#dfb317" class="data-point" style="animation-delay: 1.55s" />
    <circle cx="103.03030303030303" cy="343.796992481203" r="4" fill="#dfb317" class="data-point" style="animation-delay: 1.60s" />
    <circle cx="124.54545454545455" cy="343.51503759398497" r="4" fill="#dfb317" class="data-point" style="animation-delay: 1.65s" />
    <circle cx="146.06060606060606" cy="341.2593984962406" r="4" fill="#dfb317" class="data-point" style="animation-delay: 1.70s" />
    <circle cx="167.57575757575756" cy="339.2857142857143" r="4" fill="#dfb317" class="data-point" style="animation-delay: 1.75s" />
    <circle cx="189.0909090909091" cy="336.7481203007519" r="4" fill="#dfb317" class="data-point" style="animation-delay: 1.80s" />
    <circle cx="210.60606060606062" cy="334.77443609022555" r="4" fill="#dfb317" class="data-point" style="animation-delay: 1.85s" />
    <circle cx="232.12121212121212" cy="333.6466165413534" r="4" fill="#dfb317" class="data-point" style="animation-delay: 1.90s" />
    <circle cx="253.63636363636363" cy="332.2368421052632" r="4" fill="#dfb317" class="data-point" style="animation-delay: 1.95s" />
    <circle cx="275.1515151515151" cy="331.390977443609" r="4" fill="#dfb317" class="data-point" style="animation-delay: 2.00s" />
    <circle cx="296.66666666666663" cy="326.59774436090225" r="4" fill="#dfb317" class="data-point" style="animation-delay: 2.05s" />
    <circle cx="318.1818181818182" cy="324.0601503759398" r="4" fill="#dfb317" class="data-point" style="animation-delay: 2.10s" />
    <circle cx="339.6969696969697" cy="322.6503759398496" r="4" fill="#dfb317" class="data-point" style="animation-delay: 2.15s" />
    <circle cx="361.21212121212125" cy="316.4473684210526" r="4" fill="#dfb317" class="data-point" style="animation-delay: 2.20s" />
    <circle cx="382.7272727272727" cy="312.78195488721803" r="4" fill="#dfb317" class="data-point" style="animation-delay: 2.25s" />
    <circle cx="404.24242424242425" cy="309.3984962406015" r="4" fill="#dfb317" class="data-point" style="animation-delay: 2.30s" />
    <circle cx="425.75757575757575" cy="276.1278195488722" r="4" fill="#dfb317" class="data-point" style="animation-delay: 2.35s" />
    <circle cx="447.27272727272725" cy="262.03007518796994" r="4" fill="#dfb317" class="data-point" style="animation-delay: 2.40s" />
    <circle cx="468.7878787878788" cy="252.4436090225564" r="4" fill="#dfb317" class="data-point" style="animation-delay: 2.45s" />
    <circle cx="490.3030303030303" cy="238.34586466165413" r="4" fill="#dfb317" class="data-point" style="animation-delay: 2.50s" />
    <circle cx="511.8181818181818" cy="217.4812030075188" r="4" fill="#dfb317" class="data-point" style="animation-delay: 2.55s" />
    <circle cx="533.3333333333333" cy="197.18045112781954" r="4" fill="#dfb317" class="data-point" style="animation-delay: 2.60s" />
    <circle cx="554.8484848484849" cy="179.4172932330827" r="4" fill="#dfb317" class="data-point" style="animation-delay: 2.65s" />
    <circle cx="576.3636363636364" cy="163.34586466165416" r="4" fill="#dfb317" class="data-point" style="animation-delay: 2.70s" />
    <circle cx="597.8787878787879" cy="130.92105263157896" r="4" fill="#dfb317" class="data-point" style="animation-delay: 2.75s" />
    <circle cx="619.3939393939394" cy="115.13157894736841" r="4" fill="#dfb317" class="data-point" style="animation-delay: 2.80s" />
    <circle cx="640.909090909091" cy="104.69924812030072" r="4" fill="#dfb317" class="data-point" style="animation-delay: 2.85s" />
    <circle cx="662.4242424242425" cy="94.54887218045113" r="4" fill="#dfb317" class="data-point" style="animation-delay: 2.90s" />
    <circle cx="683.9393939393939" cy="83.55263157894734" r="4" fill="#dfb317" class="data-point" style="animation-delay: 2.95s" />
  </g>
</svg>