<svg xmlns="http://www.w3.org/2000/svg" viewBox="0 0 800 400" width="800" height="400">
  <style>
    @keyframes drawLine {
      to { stroke-dashoffset: 0; }
    }
    @keyframes fadeInPoint {
      from { opacity: 0; }
      to { opacity: 1; }
    }
    .data-line-0 {
      stroke-dasharray: 1191;
      stroke-dashoffset: 1191;
      animation: drawLine 2s ease-out forwards;
    }
    .data-point {
      opacity: 0;
      animation: fadeInPoint 0.5s ease-out forwards;
    }
    .chart-bg { fill: #fff; }
    .chart-text { fill: #24292e; }
    .chart-muted { fill: #6a737d; }
    .chart-grid { stroke: #eee; }
    .chart-axis { stroke: #6a737d; }
    @media (prefers-color-scheme: dark) {
      .chart-bg { fill: #0d1117; }
      .chart-text { fill: #e6edf3; }
      .chart-muted { fill: #8b949e; }
      .chart-grid { stroke: #21262d; }
      .chart-axis { stroke: #8b949e; }
    }
  </style>
  <rect width="800" height="400" class="chart-bg" />
  <text x="400" y="14" text-anchor="middle" class="chart-text" font-size="16" font-weight="bold" font-family="-apple-system, BlinkMacSystemFont, 'Segoe UI', Helvetica, Arial, sans-serif">saucer/saucer Star History</text>
  
  <g class="grid">
    <line x1="60" y1="350" x2="770" y2="350" class="chart-grid" stroke-opacity="0.3" />
    <text x="52" y="354" text-anchor="end" class="chart-muted" font-size="11" font-family="-apple-system, BlinkMacSystemFont, 'Segoe UI', Helvetica, Arial, sans-serif">0</text>
    <line x1="60" y1="290.2985074626866" x2="770" y2="290.2985074626866" class="chart-grid" stroke-opacity="0.3" />
    <text x="52" y="294.2985074626866" text-anchor="end" class="chart-muted" font-size="11" font-family="-apple-system, BlinkMacSystemFont, 'Segoe UI', Helvetica, Arial, sans-serif">200</text>
    <line x1="60" y1="230.59701492537312" x2="770" y2="230.59701492537312" class="chart-grid" stroke-opacity="0.3" />
    <text x="52" y="234.59701492537312" text-anchor="end" class="chart-muted" font-size="11" font-family="-apple-system, BlinkMacSystemFont, 'Segoe UI', Helvetica, Arial, sans-serif">400</text>
    <line x1="60" y1="170.8955223880597" x2="770" y2="170.8955223880597" class="chart-grid" stroke-opacity="0.3" />
    <text x="52" y="174.8955223880597" text-anchor="end" class="chart-muted" font-size="11" font-family="-apple-system, BlinkMacSystemFont, 'Segoe UI', Helvetica, Arial, sans-serif">600</text>
    <line x1="60" y1="111.19402985074626" x2="770" y2="111.19402985074626" class="chart-grid" stroke-opacity="0.3" />
    <text x="52" y="115.19402985074626" text-anchor="end" class="chart-muted" font-size="11" font-family="-apple-system, BlinkMacSystemFont, 'Segoe UI', Helvetica, Arial, sans-serif">800</text>
    <line x1="60" y1="51.49253731343282" x2="770" y2="51.49253731343282" class="chart-grid" stroke-opacity="0.3" />
    <text x="52" y="55.49253731343282" text-anchor="end" class="chart-muted" font-size="11" font-family="-apple-system, BlinkMacSystemFont, 'Segoe UI', Helvetica, Arial, sans-serif">1K</text>
  </g>
  <g class="milestones">
    
  </g>
  <g class="x-axis">
    <text x="60" y="370" text-anchor="middle" class="chart-muted" font-size="11" font-family="-apple-system, BlinkMacSystemFont, 'Segoe UI', Helvetica, Arial, sans-serif">2022</text>
    <text x="206.89655172413794" y="370" text-anchor="middle" class="chart-muted" font-size="11" font-family="-apple-system, BlinkMacSystemFont, 'Segoe UI', Helvetica, Arial, sans-serif">2023</text>
    <text x="353.7931034482759" y="370" text-anchor="middle" class="chart-muted" font-size="11" font-family="-apple-system, BlinkMacSystemFont, 'Segoe UI', Helvetica, Arial, sans-serif">2024</text>
    <text x="525.1724137931035" y="370" text-anchor="middle" class="chart-muted" font-size="11" font-family="-apple-system, BlinkMacSystemFont, 'Segoe UI', Helvetica, Arial, sans-serif">2025</text>
    <text x="696.551724137931" y="370" text-anchor="middle" class="chart-muted" font-size="11" font-family="-apple-system, BlinkMacSystemFont, 'Segoe UI', Helvetica, Arial, sans-serif">2026</text>
  </g>
  <line x1="60" y1="50" x2="60" y2="350" class="chart-axis" stroke-width="1" />
  <line x1="60" y1="350" x2="770" y2="350" class="chart-axis" stroke-width="1" />
  <path d="M60,350 L60,349.7014925373134 C68.16091954022988,349.1044776119403 76.32183908045977,348.9054726368159 84.48275862068965,347.910447761194 C92.64367816091954,346.9154228855721 100.80459770114942,344.2653296662686 108.9655172413793,343.7313432835821 C117.12643678160919,343.19735690089556 125.28735632183907,343.4013215495522 133.44827586206895,343.13432835820896 C141.60919540229884,342.8673351668657 149.77011494252872,342.089552238806 157.9310344827586,341.34328358208955 C166.0919540229885,340.5970149253731 174.2528735632184,339.452736318408 182.41379310344828,338.65671641791045 C190.57471264367817,337.8606965174129 198.73563218390805,337.363184079602 206.89655172413794,336.56716417910445 C215.05747126436782,335.7711442786069 223.2183908045977,334.5273631840796 231.3793103448276,333.8805970149254 C239.54022988505747,333.2338308457712 247.70114942528735,332.9850746268657 255.86206896551724,332.6865671641791 C264.0229885057471,332.3880597014925 272.183908045977,332.3880597014926 280.34482758620686,332.089552238806 C288.50574712643675,331.7910447761194 296.6666666666667,331.7910447761194 304.82758620689657,330.8955223880597 C312.98850574712645,330 321.14942528735634,328.05970149253733 329.3103448275862,326.7164179104478 C337.4712643678161,325.3731343283582 345.632183908046,323.02558425458534 353.7931034482759,322.8358208955224 C361.95402298850576,322.6460575364594 370.11494252873564,322.7677403688409 378.2758620689655,322.53731343283584 C386.4367816091954,322.30688649683077 394.5977011494253,319.25373134328356 402.7586206896552,317.76119402985074 C410.91954022988506,316.2686567164179 419.08045977011494,315.16225232211207 427.2413793103448,313.5820895522388 C435.4022988505747,312.00192678236556 443.5632183908046,313.3444842259687 451.7241379310345,308.2089552238806 C459.88505747126436,303.0734262217925 468.04597701149424,290.0497512437811 476.2068965517241,282.53731343283584 C484.367816091954,275.0248756218906 492.5287356321839,267.8606965174129 500.6896551724138,263.13432835820896 C508.85057471264366,258.40796019900495 517.0114942528736,257.81094527363183 525.1724137931035,254.17910447761193 C533.3333333333334,250.54726368159203 541.4942528735633,245.72139303482587 549.6551724137931,241.34328358208955 C557.816091954023,236.96517412935324 565.9770114942529,234.02985074626866 574.1379310344828,227.91044776119404 C582.2988505747127,221.7910447761194 590.4597701149426,211.94029850746267 598.6206896551724,204.62686567164178 C606.7816091954023,197.3134328358209 614.9425287356322,190.59701492537314 623.1034482758621,184.02985074626866 C631.264367816092,177.46268656716418 639.4252873563219,173.4825870646766 647.5862068965517,165.22388059701493 C655.7471264367816,156.96517412935324 663.9080459770115,143.18407960199005 672.0689655172414,134.47761194029852 C680.2298850574713,125.77114427860697 688.3908045977012,119.0049751243781 696.551724137931,112.98507462686567 C704.7126436781609,106.96517412935323 712.8735632183908,102.8358208955224 721.0344827586207,98.35820895522389 C729.1954022988506,93.88059701492537 737.3563218390805,89.60199004975122 745.5172413793103,86.1194029850746 C753.6781609195402,82.63681592039798 761.8390804597701,80.34825870646763 770,77.46268656716416 L770,350 L60,350 Z" fill="#dfb317" fill-opacity="0.1" />
  <path d="M60,350 L60,349.7014925373134 C68.16091954022988,349.1044776119403 76.32183908045977,348.9054726368159 84.48275862068965,347.910447761194 C92.64367816091954,346.9154228855721 100.80459770114942,344.2653296662686 108.9655172413793,343.7313432835821 C117.12643678160919,343.19735690089556 125.28735632183907,343.4013215495522 133.44827586206895,343.13432835820896 C141.60919540229884,342.8673351668657 149.77011494252872,342.089552238806 157.9310344827586,341.34328358208955 C166.0919540229885,340.5970149253731 174.2528735632184,339.452736318408 182.41379310344828,338.65671641791045 C190.57471264367817,337.8606965174129 198.73563218390805,337.363184079602 206.89655172413794,336.56716417910445 C215.05747126436782,335.7711442786069 223.2183908045977,334.5273631840796 231.3793103448276,333.8805970149254 C239.54022988505747,333.2338308457712 247.70114942528735,332.9850746268657 255.86206896551724,332.6865671641791 C264.0229885057471,332.3880597014925 272.183908045977,332.3880597014926 280.34482758620686,332.089552238806 C288.50574712643675,331.7910447761194 296.6666666666667,331.7910447761194 304.82758620689657,330.8955223880597 C312.98850574712645,330 321.14942528735634,328.05970149253733 329.3103448275862,326.7164179104478 C337.4712643678161,325.3731343283582 345.632183908046,323.02558425458534 353.7931034482759,322.8358208955224 C361.95402298850576,322.6460575364594 370.11494252873564,322.7677403688409 378.2758620689655,322.53731343283584 C386.4367816091954,322.30688649683077 394.5977011494253,319.25373134328356 402.7586206896552,317.76119402985074 C410.91954022988506,316.2686567164179 419.08045977011494,315.16225232211207 427.2413793103448,313.5820895522388 C435.4022988505747,312.00192678236556 443.5632183908046,313.3444842259687 451.7241379310345,308.2089552238806 C459.88505747126436,303.0734262217925 468.04597701149424,290.0497512437811 476.2068965517241,282.53731343283584 C484.367816091954,275.0248756218906 492.5287356321839,267.8606965174129 500.6896551724138,263.13432835820896 C508.85057471264366,258.40796019900495 517.0114942528736,257.81094527363183 525.1724137931035,254.17910447761193 C533.3333333333334,250.54726368159203 541.4942528735633,245.72139303482587 549.6551724137931,241.34328358208955 C557.816091954023,236.96517412935324 565.9770114942529,234.02985074626866 574.1379310344828,227.91044776119404 C582.2988505747127,221.7910447761194 590.4597701149426,211.94029850746267 598.6206896551724,204.62686567164178 C606.7816091954023,197.3134328358209 614.9425287356322,190.59701492537314 623.1034482758621,184.02985074626866 C631.264367816092,177.46268656716418 639.4252873563219,173.4825870646766 647.5862068965517,165.22388059701493 C655.7471264367816,156.96517412935324 663.9080459770115,143.18407960199005 672.0689655172414,134.47761194029852 C680.2298850574713,125.77114427860697 688.3908045977012,119.0049751243781 696.551724137931,112.98507462686567 C704.7126436781609,106.96517412935323 712.8735632183908,102.8358208955224 721.0344827586207,98.35820895522389 C729.1954022988506,93.88059701492537 737.3563218390805,89.60199004975122 745.5172413793103,86.1194029850746 C753.6781609195402,82.63681592039798 761.8390804597701,80.34825870646763 770,77.46268656716416" fill="none" stroke="#dfb317" stroke-width="2.5" class="data-line-0" />
  <g class="points">
    
    <circle cx="60" cy="349.7014925373134" r="4" fill="#dfb317" class="data-point" style="animation-delay: 1.50s" />
    <circle cx="84.48275862068965" cy="347.910447761194" r="4" fill="#dfb317" class="data-point" style="animation-delay: 1.55s" />
    <circle cx="108.9655172413793" cy="343.7313432835821" r="4" fill="#dfb317" class="data-point" style="animation-delay: 1.60s" />
    <circle cx="133.44827586206895" cy="343.13432835820896" r="4" fill="#dfb317" class="data-point" style="animation-delay: 1.65s" />
    <circle cx="157.9310344827586" cy="341.34328358208955" r="4" fill="#dfb317" class="data-point" style="animation-delay: 1.70s" />
    <circle cx="182.41379310344828" cy="338.65671641791045" r="4" fill="#dfb317" class="data-point" style="animation-delay: 1.75s" />
    <circle cx="206.89655172413794" cy="336.56716417910445" r="4" fill="#dfb317" class="data-point" style="animation-delay: 1.80s" />
    <circle cx="231.3793103448276" cy="333.8805970149254" r="4" fill="#dfb317" class="data-point" style="animation-delay: 1.85s" />
    <circle cx="255.86206896551724" cy="332.6865671641791" r="4" fill="#dfb317" class="data-point" style="animation-delay: 1.90s" />
    <circle cx="280.34482758620686" cy="332.089552238806" r="4" fill="#dfb317" class="data-point" style="animation-delay: 1.95s" />
    <circle cx="304.82758620689657" cy="330.8955223880597" r="4" fill="#dfb317" class="data-point" style="animation-delay: 2.00s" />
    <circle cx="329.3103448275862" cy="326.7164179104478" r="4" fill="#dfb317" class="data-point" style="animation-delay: 2.05s" />
    <circle cx="353.7931034482759" cy="322.8358208955224" r="4" fill="#dfb317" class="data-point" style="animation-delay: 2.10s" />
    <circle cx="378.2758620689655" cy="322.53731343283584" r="4" fill="#dfb317" class="data-point" style="animation-delay: 2.15s" />
    <circle cx="402.7586206896552" cy="317.76119402985074" r="4" fill="#dfb317" class="data-point" style="animation-delay: 2.20s" />
    <circle cx="427.2413793103448" cy="313.5820895522388" r="4" fill="#dfb317" class="data-point" style="animation-delay: 2.25s" />
    <circle cx="451.7241379310345" cy="308.2089552238806" r="4" fill="#dfb317" class="data-point" style="animation-delay: 2.30s" />
    <circle cx="476.2068965517241" cy="282.53731343283584" r="4" fill="#dfb317" class="data-point" style="animation-delay: 2.35s" />
    <circle cx="500.6896551724138" cy="263.13432835820896" r="4" fill="#dfb317" class="data-point" style="animation-delay: 2.40s" />
    <circle cx="525.1724137931035" cy="254.17910447761193" r="4" fill="#dfb317" class="data-point" style="animation-delay: 2.45s" />
    <circle cx="549.6551724137931" cy="241.34328358208955" r="4" fill="#dfb317" class="data-point" style="animation-delay: 2.50s" />
    <circle cx="574.1379310344828" cy="227.91044776119404" r="4" fill="#dfb317" class="data-point" style="animation-delay: 2.55s" />
    <circle cx="598.6206896551724" cy="204.62686567164178" r="4" fill="#dfb317" class="data-point" style="animation-delay: 2.60s" />
    <circle cx="623.1034482758621" cy="184.02985074626866" r="4" fill="#dfb317" class="data-point" style="animation-delay: 2.65s" />
    <circle cx="647.5862068965517" cy="165.22388059701493" r="4" fill="#dfb317" class="data-point" style="animation-delay: 2.70s" />
    <circle cx="672.0689655172414" cy="134.47761194029852" r="4" fill="#dfb317" class="data-point" style="animation-delay: 2.75s" />
    <circle cx="696.551724137931" cy="112.98507462686567" r="4" fill="#dfb317" class="data-point" style="animation-delay: 2.80s" />
    <circle cx="721.0344827586207" cy="98.35820895522389" r="4" fill="#dfb317" class="data-point" style="animation-delay: 2.85s" />
    <circle cx="745.5172413793103" cy="86.1194029850746" r="4" fill="#dfb317" class="data-point" style="animation-delay: 2.90s" />
    <circle cx="770" cy="77.46268656716416" r="4" fill="#dfb317" class="data-point" style="animation-delay: 2.95s" />
  </g>
</svg>